<svg xmlns="http://www.w3.org/2000/svg" viewBox="0 0 296.74 307.05"><defs><style>.cls-1{fill:none;stroke:#231f20;stroke-miterlimit:10;stroke-width:1.72px;}</style></defs><title>logo-outline-black</title><g id="Layer_2" data-name="Layer 2"><g id="Layer_1-2" data-name="Layer 1"><path class="cls-1" d="M292.51,119.55a49.68,49.68,0,0,0-5.35-16.82C217.3,74.44,166.65,70.45,133.63,77c-4.68.93-9,1.86-13,2.88l2.12-18.16-13,7.22s-3.64,9.2-6.66,16.7c0,.11-.09.22-.13.33h0l-9.57,4.68a0,0,0,0,1,0,0l-16.37,8L65.48,42.55,49.19,53s0,8.69.06,19.43L41,76.65a6.94,6.94,0,0,0-2.41,9.62,7.74,7.74,0,0,0,6.66,4.2,5.55,5.55,0,0,0,2.59-.61l1.47-.76c0,11.09.09,21,.11,23.06L15.69,128.67c-5.44,2.81-11.89,10.83-9.18,15.58,2.41,4.67,13,4.13,18,1.52L57.6,127.72h0c2.56,1.84,10,7.19,18.36,13.11l-1.39.72a6.66,6.66,0,0,0-3.28,6,7.91,7.91,0,0,0,.87,3.62,6.94,6.94,0,0,0,9.24,3.59l8.17-4.23,15.61,11.14,17.9-7.29L84.36,113.11l24.7-13.49c7.81,1.86,17.15,4.14,17.15,4.14l13.42-6.45-17-9.17A124,124,0,0,1,135.44,86C221.8,76.15,292.51,119.55,292.51,119.55Z"/><path class="cls-1" d="M295.54,164.89c-24.88-.66-63.67-1.31-98.38,41.55,0,0,67.63,33.34,70.13,36.81q-2.76,3.81-5.87,7.6c-55.67-29.64-88.87-46.18-112.61-55.51h0c-25-9.83-39.47-11.69-58.58-12.46-37.29-1.5-84.39,35.32-84.39,35.32q-2.76-6.39-4.79-12c32.92-20.65,58-34.91,91.75-34.28,17,.32,33.82,4.43,50.22,10.48s32.48,14.05,47.92,22.09c0,0,10-16.57,30.65-31.32a119.67,119.67,0,0,1,74.14-22.46A102.29,102.29,0,0,1,295.54,164.89Z"/><path class="cls-1" d="M261.42,250.85a159,159,0,0,1-41.33,35.09q-1.58.94-3.15,1.83c-63.15-50.88-148.35-46.4-195.2-41.27a103,103,0,0,1-11.23-18.08c-1.6-3.32-4.57-10-4.67-10.23,0,0,47.1-36.82,84.39-35.32S147.19,190,261.42,250.85Z"/><path class="cls-1" d="M202.14,295.06c-62.79,26.54-131.3,2.06-169.3-35.95C74.37,252.51,149.26,249.11,202.14,295.06Z"/><path class="cls-1" d="M216.94,287.77a142.67,142.67,0,0,1-14.8,7.29c-52.88-45.95-127.77-42.55-169.3-35.95a128.31,128.31,0,0,1-11.1-12.61C68.59,241.37,153.79,236.89,216.94,287.77Z"/><path class="cls-1" d="M295.54,164.89c-1.25,17.48-6.71,48.57-28.25,78.36-2.5-3.47-70.13-36.81-70.13-36.81C231.87,163.58,270.66,164.23,295.54,164.89Z"/><path class="cls-1" d="M38.15,42.73S94.73-12.42,171,3.87s98,64.28,98,64.28S210.44,23,138.44,25.58C68.06,28.1,38.15,42.73,38.15,42.73"/><path class="cls-1" d="M221.59,172.87v.32c-20.64,14.75-30.65,31.32-30.65,31.32-15.44-8-31.48-16-47.92-22.09a39.86,39.86,0,1,1,78.57-9.55Z"/><line class="cls-1" x1="148.81" y1="195.34" x2="148.81" y2="195.33"/></g></g></svg>