<svg xmlns="http://www.w3.org/2000/svg" viewBox="0 0 295.03 305.51"><defs><style>.cls-1{fill:#ffef2e;}.cls-1,.cls-2,.cls-3,.cls-4{stroke:#231f20;stroke-miterlimit:10;stroke-width:0.18px;}.cls-2{fill:#32325e;}.cls-3{fill:#6f6fd8;}.cls-4{fill:none;}</style></defs><title>logo-colored</title><g id="Layer_2" data-name="Layer 2"><g id="Layer_1-2" data-name="Layer 1"><path class="cls-1" d="M134.5,85.24a124,124,0,0,0-12.81,2.13l17,9.17L125.27,103s-9.34-2.28-17.15-4.14l-24.7,13.49,38.73,41.28-17.9,7.29L88.64,149.77,80.47,154a6.94,6.94,0,0,1-9.24-3.59,7.91,7.91,0,0,1-.87-3.62,6.66,6.66,0,0,1,3.28-6l1.39-.72c-8.31-5.92-15.8-11.27-18.36-13.11h0L23.6,145c-5.06,2.61-15.62,3.15-18-1.52-2.71-4.75,3.74-12.77,9.18-15.58l33.73-16.51c0-2.11-.06-12-.11-23.06l-1.47.76a5.55,5.55,0,0,1-2.59.61,7.74,7.74,0,0,1-6.66-4.2,6.94,6.94,0,0,1,2.41-9.62l8.25-4.27c0-10.74-.06-19.43-.06-19.43l16.29-10.4L76,97.92l16.37-8a0,0,0,0,0,0,0L102,85.21h0c0-.11.08-.22.13-.33,3-7.5,6.66-16.7,6.66-16.7l13-7.22-2.12,18.16c4-1,8.37-2,13-2.88,33-6.56,83.67-2.57,153.53,25.72a49.68,49.68,0,0,1,5.35,16.82S220.86,75.38,134.5,85.24Z"/><path class="cls-2" d="M294.6,164.12c-24.88-.66-63.67-1.31-98.38,41.55,0,0,67.63,33.34,70.13,36.81q-2.76,3.81-5.87,7.6l-6.6-3.51-3.22-1.71q-10.5-5.56-19.9-10.47L226.25,232c-6.68-3.47-12.94-6.7-18.84-9.69l-3.87-2-.65-.33-1.85-.93-5.37-2.69-3.14-1.55-5.16-2.54-5-2.4-3.19-1.53-2.23-1q-4.29-2-8.24-3.84l-2.47-1.12-2.38-1.07-1.93-.85q-4.22-1.86-8.07-3.46l-1.92-.79c-.63-.27-1.26-.52-1.87-.76L149,195l-1.12-.44h0c-.24-.09-.47-.19-.71-.27l-1.13-.44c-1.49-.58-2.94-1.13-4.36-1.64-.71-.27-1.42-.52-2.11-.76-.54-.2-1.08-.39-1.61-.56l-2.45-.84c-.67-.23-1.32-.44-2-.64-1.3-.42-2.57-.81-3.81-1.18-.62-.19-1.24-.37-1.85-.53l-1.11-.31c-.52-.15-1-.29-1.55-.42l-2.7-.69c-1.37-.33-2.71-.63-4-.91-1.5-.33-3-.61-4.43-.87-.55-.1-1.1-.2-1.65-.28s-1.09-.18-1.63-.26-1.09-.17-1.63-.24l-1.14-.15-1.29-.17-2-.23c-.68-.08-1.35-.15-2-.21-1.62-.16-3.25-.29-4.9-.41l-3.33-.21c-1.68-.09-3.39-.17-5.14-.24C52,180.6,4.9,217.42,4.9,217.42q-2.76-6.39-4.79-12c32.92-20.65,58-34.91,91.75-34.28,17,.32,33.82,4.43,50.22,10.48s32.48,14,47.92,22.09c0,0,10-16.57,30.65-31.32A119.67,119.67,0,0,1,294.79,150,102.29,102.29,0,0,1,294.6,164.12Z"/><path class="cls-3" d="M260.48,250.08a159,159,0,0,1-41.33,35.09q-1.58.94-3.15,1.83c-63.15-50.88-148.35-46.4-195.2-41.27A103,103,0,0,1,9.57,227.65C8,224.33,5,217.65,4.9,217.42c0,0,47.1-36.82,84.39-35.32,1.75.07,3.46.15,5.14.24l3.33.21c1.65.12,3.28.25,4.9.41.68.06,1.35.13,2,.21l2,.23,1.29.17,1.14.15c.54.07,1.09.15,1.63.24l1.63.26,1.65.28c1.46.26,2.93.54,4.43.87,1.32.28,2.66.58,4,.91l2.7.69c.52.13,1,.27,1.55.42l1.11.31,1.85.53c1.24.37,2.51.76,3.81,1.18l2,.64,2.45.84,1.61.56,2.11.76c1.42.52,2.87,1.06,4.36,1.64l1.13.44.71.28L149,195l1.13.46c.61.24,1.24.49,1.87.76l1.92.79q3.85,1.6,8.07,3.46l1.93.85,2.38,1.07,2.47,1.12q4,1.8,8.24,3.84l2.23,1,3.19,1.53,5,2.4,5.16,2.54,3.14,1.55,5.37,2.69,1.85.93.65.33,3.87,2c5.9,3,12.16,6.22,18.84,9.69l4.51,2.35q9.41,4.92,19.9,10.47l3.22,1.71Z"/><path class="cls-3" d="M201.2,294.29c-62.79,26.54-131.3,2.06-169.3-36C73.43,251.74,148.32,248.34,201.2,294.29Z"/><path class="cls-2" d="M216,287a142.67,142.67,0,0,1-14.8,7.29c-52.88-46-127.77-42.55-169.3-36a128.31,128.31,0,0,1-11.1-12.61C67.65,240.6,152.85,236.12,216,287Z"/><path class="cls-3" d="M294.6,164.12c-1.25,17.48-6.71,48.57-28.25,78.36-2.5-3.47-70.13-36.81-70.13-36.81C230.93,162.81,269.72,163.46,294.6,164.12Z"/><path class="cls-2" d="M268.06,67.37C267.18,66.7,209,22.26,137.5,24.81,68.22,27.28,38.16,41.5,37.24,41.94,38.47,40.74,94.63-13,170.07,3.1S267.66,66.49,268.06,67.37Z"/><path class="cls-4" d="M268.07,67.38h0"/><path class="cls-4" d="M37.24,41.94h0"/><path class="cls-1" d="M220.65,172.1v.32C200,187.17,190,203.74,190,203.74c-15.44-8-31.48-16-47.92-22.09a39.86,39.86,0,1,1,78.57-9.55Z"/></g></g></svg>