<svg xmlns="http://www.w3.org/2000/svg" viewBox="0 0 296.82 306.69"><defs><style>.cls-1{fill:#fff;}</style></defs><title>logo-outline-white</title><g id="Layer_2" data-name="Layer 2"><g id="Layer_1-2" data-name="Layer 1"><path class="cls-1" d="M105.1,162.29l-.4-.29L89.63,151.24c-5.34,3.9-10.71,5.16-14.8,3.43A7,7,0,0,1,70.41,149c-.35-2.95,1.13-6,4.1-8.57-7.44-5.3-14.08-10.05-16.9-12.07-28.78,18.4-45.15,21.19-50.42,18A4.54,4.54,0,0,1,5,141.83c.7-7.21,14.63-19.87,43.57-30.71,0-2.27,0-8-.07-15.06l0-6.17c-3.91,1-7.14.54-9.17-1.42s-2.5-4.8-1.58-7.89c1.06-3.58,4.41-7.84,10.68-9.34,0-10.4-.06-18.7-.06-18.7V52L66.13,40.67,77.62,97l.36-.17,3.44-1.68c4.47-2.19,11.23-5.5,11.51-5.65l3-1.45c2.3-1.13,5.26-2.58,6.33-3.09,2.44-6.1,6.55-16.43,6.65-16.69l.12-.31.29-.16,14.54-8.07L121.66,78.3c40.66-9.61,82.93-8.92,165.86,23.18l.29.11.16.27A50,50,0,0,1,293.44,119l.26,1.89-1.63-1c-.7-.43-71.45-43.12-156.49-33.41h0c-3.47.39-6.93.93-10.33,1.61l16.4,8.84-15.31,7.36-.31-.08S117,102,109.22,100.16L85.85,112.93l38.83,41.38ZM89.6,149l.54.38c7.42,5.31,13.6,9.71,15.2,10.85l16.23-6.6L82.94,112.46l26-14.21.33.08c7,1.66,15.16,3.65,16.84,4.06l11.54-5.54-17.57-9.48,2.36-.52a123.06,123.06,0,0,1,12.9-2.15c78.43-9,144.8,26.35,156,32.71A49.64,49.64,0,0,0,286.57,103C203.42,70.9,161.5,70.53,120.83,80.35l-1.26.3L121.64,63l-11.2,6.22c-.86,2.19-5.21,13.08-6.67,16.73l-.13.33-.32.15c-.58.27-4,2-6.63,3.23l-3,1.45L82.21,96.71,78,98.78l1.39,6.76-3.22-6.88a1,1,0,0,1-.14-.55L64.89,43.6,50.13,53c0,2,0,9.7,0,18.93v.74l-.73.15c-6,1.17-9.09,5-10,8.24-.72,2.43-.3,4.71,1.12,6.08,1.72,1.67,4.75,1.9,8.52.66l1.18-.39,0,8.62c0,7.83.06,14,.07,15.68v.63l-.59.22c-30.34,11.26-42.48,24-43,29.42a2.71,2.71,0,0,0,1.36,2.81c3.91,2.39,18.64,1.23,49-18.27l.51-.33.5.35c2.56,1.84,10,7.19,18.36,13.11l1,.72-1,.74c-3.07,2.28-4.65,5.08-4.34,7.67a5.21,5.21,0,0,0,3.33,4.2c3.57,1.51,8.63.16,13.54-3.6Z"/><path class="cls-1" d="M261.68,251.57l-.64-.34c-6.36-3.32-12.68-6.66-19-10-29.7-15.7-60.42-31.93-93.53-45.46l-.56-.28c-53.86-25.77-109.84-3.77-141.48,23l-.93.79-.48-1.12c-1.8-4.15-3.41-8.19-4.81-12L0,205.46l.57-.4c37-25.6,69.08-36.38,100.92-33.92,29.22,2.26,56.56,15.13,89.17,31.78,18.39-28.51,60.2-55.9,105.15-53.5l.79,0,.06.78a101.62,101.62,0,0,1-.19,14.3l-.06.86-.86,0c-23.39-.61-62.39-1.65-96.94,40.35,10.46,5.16,67,33.17,69.44,36.59l.38.53-.38.52c-1.93,2.67-3.91,5.24-5.9,7.65ZM149.34,194.16c33.13,13.55,63.84,29.78,93.54,45.47q9.15,4.85,18.34,9.67c1.66-2,3.3-4.16,4.91-6.36-4.93-3.84-43.48-23.36-69.33-36.11l-1-.5.71-.87c34.86-43.06,74.27-42.54,98.24-41.91a114.17,114.17,0,0,0,.18-12.38c-44.32-2-85.41,25.25-103.19,53.41l-.43.69-.74-.37c-66.38-33.93-111-52-188.39,1.25,1.2,3.25,2.56,6.66,4.05,10.16a153.47,153.47,0,0,1,61-30.61c28.72-6.88,56.33-4,82.06,8.41Z"/><path class="cls-1" d="M216.88,288.44l-.47-.38C148.25,233.14,53.13,243.56,21.87,247l-.47.05-.31-.36C15.42,240,8,225.54,5,218.11l-.26-.65.56-.41C45,187.83,75.11,177.89,109.21,182.72c33.27,4.73,70.26,24,121.47,50.73,9.92,5.18,20.17,10.52,31.19,16.18l1,.51-.7.86c-11.46,14-27.76,27.58-44.73,37.14ZM71.55,242.21a323.75,323.75,0,0,1,41.83,2.61c41.17,5.41,76.05,19.35,103.68,41.45,16.25-9.24,31.83-22.13,43-35.55-10.65-5.47-20.58-10.65-30.2-15.67-51-26.62-87.93-45.86-120.9-50.54-33.42-4.75-63,5-102,33.58,3,7.33,9.84,20.55,15.19,27A453.23,453.23,0,0,1,71.55,242.21Z"/><path class="cls-1" d="M146.84,306.69c-45.84,0-88.46-21.21-114.6-47.36L31,258.08l1.74-.27c40.55-6.45,116.55-10.32,170,36.16l1.09.94-1.33.56A142.08,142.08,0,0,1,146.84,306.69ZM34.78,259.31c36.23,35.3,102.8,60.89,165.7,35.07C148.38,250,75.14,253.13,34.78,259.31Z"/><path class="cls-1" d="M202,295.69l-.43-.37c-52.93-46-128.33-42.13-168.56-35.74l-.46.08-.32-.33a129.51,129.51,0,0,1-11.18-12.7l-1-1.27,1.59-.17c22.11-2.42,55.67-5.09,91.7-.37,41.41,5.44,76.45,19.51,104.16,41.83l1,.83-1.15.66a143.82,143.82,0,0,1-14.9,7.33ZM80.19,254c38.91,0,85.7,8.19,122.15,39.62a142.67,142.67,0,0,0,13-6.38c-67-53.08-159.27-44-191.9-40.41a130.5,130.5,0,0,0,9.72,10.92A305.6,305.6,0,0,1,80.19,254Z"/><path class="cls-1" d="M267.32,244.37l-.73-1c-1.9-2.49-42.78-23.21-69.79-36.53l-1-.5.71-.87c35.28-43.58,75.23-42.53,99.1-41.88l.94,0-.07.94c-1.17,16.38-6.42,48.4-28.42,78.82Zm-68.71-38.65c9.87,4.88,60.84,30.13,68.55,35.8,20.85-29.25,26.17-59.87,27.45-76.17C271.13,164.74,232.7,164.28,198.61,205.72Z"/><path class="cls-1" d="M271.72,70.87l-3.23-2.43C196.15,14,102.27,19.7,38.52,43.14l-4.4,1.62,3.49-3.14C75.31,7.83,122.4-6.08,170.22,2.45c43.12,7.69,83.15,33.76,99.61,64.85ZM134.47,24.33c44.44,0,91.24,11,131.73,40.19-17.32-29-55.38-53-96.3-60.3C124.14-3.94,79,8.7,42.38,39.85A284.66,284.66,0,0,1,134.47,24.33Z"/><polygon class="cls-1" points="268.43 68.39 268.42 68.38 269.66 67.07 268.43 68.39"/><polygon class="cls-1" points="38.2 43.2 38.2 42.3 37.6 41.64 38.2 42.27 38.2 41.41 38.2 42.27 38.84 42.95 38.2 43.2"/><path class="cls-1" d="M191.31,205.28l-.75-.39c-15.13-7.87-31.39-16-47.82-22l-.49-.18-.08-.52c-3-17.73,2.05-32.56,14.17-41.76S186,129.46,200,136.05c13.79,6.49,21.78,19.4,22.5,36.37v.82l-.37.27c-20.24,14.46-30.31,30.89-30.41,31.05Zm-47.45-23.94c16.09,6,32,13.87,46.8,21.58a123.46,123.46,0,0,1,30.06-30.6c-.74-16.18-8.36-28.48-21.47-34.64-13.41-6.31-30.22-4.65-41.82,4.15S141.17,164.53,143.86,181.34Z"/></g></g></svg>